<?xml version="1.0" standalone="no"?>
<!DOCTYPE svg PUBLIC "-//W3C//DTD SVG 1.1//EN" "http://www.w3.org/Graphics/SVG/1.1/DTD/svg11.dtd" >
<svg>
<metadata>
Created by FontForge 20090914 at Fri Sep 24 13:19:42 2021
 By www-data
Copyright &#194;&#169; 2020 by Vasily Draigo aka Daymarius. All rights reserved.
</metadata>
<defs>
<font id="Tenoture" horiz-adv-x="4506" >
  <font-face 
    font-family="Tenoture"
    font-weight="400"
    font-stretch="normal"
    units-per-em="4096"
    panose-1="0 0 4 0 0 0 0 0 0 0"
    ascent="3276"
    descent="-820"
    x-height="3277"
    cap-height="3277"
    bbox="0 -819 7373 4506"
    underline-thickness="204"
    underline-position="511"
    unicode-range="U+001D-U+201D"
  />
<missing-glyph horiz-adv-x="8003" 
d="M819 3277v-3277h-819v3277h819zM7373 2048v-2048h-819v1229h-2048v819h2867zM3277 0l-2048 2048v1229l2048 -2048v2048h4096v-819h-3277v-1639h2048v-819h-2867z" />
    <glyph glyph-name=".notdef" horiz-adv-x="8003" 
d="M819 3277v-3277h-819v3277h819zM7373 2048v-2048h-819v1229h-2048v819h2867zM3277 0l-2048 2048v1229l2048 -2048v2048h4096v-819h-3277v-1639h2048v-819h-2867z" />
    <glyph glyph-name=".null" horiz-adv-x="0" 
 />
    <glyph glyph-name=".null" horiz-adv-x="0" 
 />
    <glyph glyph-name="space" unicode=" " horiz-adv-x="2048" 
 />
    <glyph glyph-name="exclam" unicode="!" horiz-adv-x="1229" 
d="M819 3277v-2048h-819v2048h819zM819 819v-819h-819v819h819z" />
    <glyph glyph-name="quotedbl" unicode="&#x22;" horiz-adv-x="2458" 
d="M1229 3277h819v-1639h-819v1639zM0 3277h819v-1639h-819v1639z" />
    <glyph glyph-name="quotesingle" unicode="'" horiz-adv-x="1229" 
d="M0 1638v1639h819v-1639h-819z" />
    <glyph glyph-name="plus" unicode="+" horiz-adv-x="3686" 
d="M1229 2048v1229h819v-1229h1229v-819h-1229v-1229h-819v1229h-1229v819h1229z" />
    <glyph glyph-name="comma" unicode="," horiz-adv-x="1229" 
d="M819 -819l-819 819v819h819v-1638z" />
    <glyph glyph-name="hyphen" unicode="-" horiz-adv-x="3686" 
d="M0 1229v819h3277v-819h-3277z" />
    <glyph glyph-name="period" unicode="." horiz-adv-x="1229" 
d="M0 0v819h819v-819h-819z" />
    <glyph glyph-name="slash" unicode="/" 
d="M0 0v410l2867 2867h1229l-3277 -3277h-819z" />
    <glyph glyph-name="zero" unicode="0" 
d="M1229 1229v819h1638v-819h-1638zM3277 819v1639h-2458v-1639h2458zM0 0v3277h4096v-3277h-4096z" />
    <glyph glyph-name="one" unicode="1" 
d="M0 0v819h1638v2458h820v-2458h1638v-819h-4096zM1229 3277v-819h-1229v819h1229z" />
    <glyph glyph-name="two" unicode="2" 
d="M0 0v2048h3277v410h-3277v819h4096v-2048h-3277v-1229h-819zM1229 819h2867v-819h-2867v819z" />
    <glyph glyph-name="three" unicode="3" 
d="M4096 3277v-3277h-4096v819h3277v1639h-3277v819h4096zM410 1229v819h2457v-819h-2457z" />
    <glyph glyph-name="four" unicode="4" 
d="M1229 1229v819h2048v1229h819v-3277h-819v1229h-2048zM819 3277v-2048h-819v2048h819z" />
    <glyph glyph-name="five" unicode="5" 
d="M0 1229v2048h4096v-819h-3277v-410h3277v-2048h-819v1229h-3277zM0 0v819h2867v-819h-2867z" />
    <glyph glyph-name="six" unicode="6" 
d="M0 0v819h3277v410h-2048v819h2867v-2048h-4096zM0 1229v2048h2458v-819h-1639v-1229h-819z" />
    <glyph glyph-name="seven" unicode="7" 
d="M410 0l2048 2048h1228l-2048 -2048h-1228zM0 2458v819h4096v-819h-4096z" />
    <glyph glyph-name="eight" unicode="8" 
d="M1229 819h2048v2458h819v-3277h-2867v819zM2867 3277v-819h-2048v-2458h-819v3277h2867zM2867 2048v-819h-1638v819h1638z" />
    <glyph glyph-name="nine" unicode="9" 
d="M4096 3277v-819h-3277v-410h2048v-819h-2867v2048h4096zM3277 819v1229h819v-2048h-2458v819h1639z" />
    <glyph glyph-name="colon" unicode=":" horiz-adv-x="1229" 
d="M0 410v819h819v-819h-819zM0 2048v819h819v-819h-819z" />
    <glyph glyph-name="semicolon" unicode=";" horiz-adv-x="1229" 
d="M819 1229v-1639l-819 820v819h819zM0 2048v819h819v-819h-819z" />
    <glyph glyph-name="equal" unicode="=" 
d="M0 410v819h4096v-819h-4096zM0 2048v819h4096v-819h-4096z" />
    <glyph glyph-name="question" unicode="?" 
d="M1638 2048h1639v1229h819v-2048h-2458v819zM0 2458v819h2867v-819h-2867zM2458 819v-819h-820v819h820z" />
    <glyph glyph-name="A" unicode="A" 
d="M3277 3277h819v-819h-410l-2457 -2458h-1229zM2458 410l1638 1638v-2048h-819v410h-819z" />
    <glyph glyph-name="B" unicode="B" 
d="M0 2458v819h3686l410 -410v-2457l-410 -410h-2457v819h2048v410h-2048v819h2048v410h-3277zM819 2048v-2048h-819v2048h819z" />
    <glyph glyph-name="C" unicode="C" 
d="M0 3277h4096v-819h-4096v819zM1229 819h2867v-819h-2867v819zM0 2048h819v-2048h-819v2048z" />
    <glyph glyph-name="D" unicode="D" 
d="M819 2048v-1229h1229l819 819l-819 820h-2048v819h2458l1638 -1639l-1638 -1638h-2458v2048h819z" />
    <glyph glyph-name="E" unicode="E" 
d="M0 3277h4096v-819h-3277v-1639h3277v-819h-4096v3277zM3686 2048v-819h-2457v819h2457z" />
    <glyph glyph-name="F" unicode="F" 
d="M1229 1229v819h2457v-819h-2457zM0 0v3277h4096v-819h-3277v-2458h-819z" />
    <glyph glyph-name="G" unicode="G" 
d="M4096 3277v-819h-3277v-1639h2048v-819h-2867v3277h4096zM4096 2048v-2048h-819v1229h-2048v819h2867z" />
    <glyph glyph-name="H" unicode="H" 
d="M1229 1229v819h2048v1229h819v-3277h-819v1229h-2048zM0 0v3277h819v-3277h-819z" />
    <glyph glyph-name="I" unicode="I" 
d="M0 2458v819h4096v-819h-1638v-1229h-820v1229h-1638zM4096 819v-819h-4096v819h4096z" />
    <glyph glyph-name="J" unicode="J" 
d="M0 1638h819v-819h2458v2458h819v-3277h-4096v1638zM1638 2458v819h1229v-819h-1229z" />
    <glyph glyph-name="K" unicode="K" 
d="M2867 3277h1229l-1638 -1639l1638 -1638h-1229l-1638 1638zM0 3277h819v-3277h-819v3277z" />
    <glyph glyph-name="L" unicode="L" 
d="M0 0v819h4096v-819h-4096zM0 1229v2048h819v-2048h-819z" />
    <glyph glyph-name="M" unicode="M" 
d="M2048 2048l1229 1229h819v-3277h-819v2048l-1229 -1229l-819 819v1229zM819 3277v-3277h-819v3277h819z" />
    <glyph glyph-name="N" unicode="N" 
d="M3277 1229v2048h819v-3277h-819l-2048 2048v1229zM819 3277v-3277h-819v3277h819z" />
    <glyph glyph-name="O" unicode="O" 
d="M3277 819v2458h819v-3277h-4096v819h3277zM0 3277h2867v-819h-2048v-1229h-819v2048z" />
    <glyph glyph-name="P" unicode="P" 
d="M0 2458v819h4096v-2048h-2867v819h2048v410h-3277zM0 0v2048h819v-2048h-819z" />
    <glyph glyph-name="Q" unicode="Q" 
d="M4096 3277v-1639l-819 820h-2458v-1639h1229l819 -819h-2867v3277h4096zM2458 1229v409h819l819 -819v-819h-410z" />
    <glyph glyph-name="R" unicode="R" 
d="M0 2458v819h4096v-2048h-1229l1229 -1229h-1229l-1638 1638v410h2048v410h-3277zM819 2048v-2048h-819v2048h819z" />
    <glyph glyph-name="S" unicode="S" 
d="M0 0v819h3277v410h-3277v2048h819v-1229h3277v-2048h-4096zM1229 2458v819h2867v-819h-2867z" />
    <glyph glyph-name="T" unicode="T" 
d="M4096 3277v-819h-1638v-2458h-820v3277h2458zM0 2458v819h1229v-819h-1229z" />
    <glyph glyph-name="U" unicode="U" 
d="M3277 819v2458h819v-3277h-2867v819h2048zM819 3277v-3277h-819v3277h819z" />
    <glyph glyph-name="V" unicode="V" 
d="M1229 1229l2048 2048h819v-410l-2867 -2867v1229zM0 0v3277h819v-3277h-819z" />
    <glyph glyph-name="W" unicode="W" 
d="M1229 410v1228l819 820l1229 -1229v2048h819v-3277h-819l-1229 1229zM0 0v3277h819v-3277h-819z" />
    <glyph glyph-name="X" unicode="X" 
d="M0 0v410l2867 2867h1229l-1229 -1229l1229 -1229v-819h-410l-1433 1434l-1434 -1434h-819zM819 3277l612 -617l-612 -612l-819 819v410h819z" />
    <glyph glyph-name="Y" unicode="Y" 
d="M0 3277h1229l819 -819l819 819h1229l-1638 -1639h-820zM2458 1229v-1229h-820v1229h820z" />
    <glyph glyph-name="Z" unicode="Z" 
d="M0 2048h3277v1229h819v-2048h-3277v-410h3277v-819h-4096v2048zM0 3277h2867v-819h-2867v819z" />
    <glyph glyph-name="a" unicode="a" 
d="M3277 3277h819v-819h-410l-2457 -2458h-1229zM2458 410l1638 1638v-2048h-819v410h-819z" />
    <glyph glyph-name="b" unicode="b" 
d="M0 2458v819h3686l410 -410v-2457l-410 -410h-2457v819h2048v410h-2048v819h2048v410h-3277zM819 2048v-2048h-819v2048h819z" />
    <glyph glyph-name="c" unicode="c" 
d="M0 3277h4096v-819h-4096v819zM1229 819h2867v-819h-2867v819zM0 2048h819v-2048h-819v2048z" />
    <glyph glyph-name="d" unicode="d" 
d="M819 2048v-1229h1229l819 819l-819 820h-2048v819h2458l1638 -1639l-1638 -1638h-2458v2048h819z" />
    <glyph glyph-name="e" unicode="e" 
d="M0 3277h4096v-819h-3277v-1639h3277v-819h-4096v3277zM3686 2048v-819h-2457v819h2457z" />
    <glyph glyph-name="f" unicode="f" 
d="M1229 1229v819h2457v-819h-2457zM0 0v3277h4096v-819h-3277v-2458h-819z" />
    <glyph glyph-name="g" unicode="g" 
d="M4096 3277v-819h-3277v-1639h2048v-819h-2867v3277h4096zM4096 2048v-2048h-819v1229h-2048v819h2867z" />
    <glyph glyph-name="h" unicode="h" 
d="M1229 1229v819h2048v1229h819v-3277h-819v1229h-2048zM0 0v3277h819v-3277h-819z" />
    <glyph glyph-name="i" unicode="i" 
d="M0 2458v819h4096v-819h-1638v-1229h-820v1229h-1638zM4096 819v-819h-4096v819h4096z" />
    <glyph glyph-name="j" unicode="j" 
d="M0 1638h819v-819h2458v2458h819v-3277h-4096v1638zM1638 2458v819h1229v-819h-1229z" />
    <glyph glyph-name="k" unicode="k" 
d="M2867 3277h1229l-1638 -1639l1638 -1638h-1229l-1638 1638zM0 3277h819v-3277h-819v3277z" />
    <glyph glyph-name="l" unicode="l" 
d="M0 0v819h4096v-819h-4096zM0 1229v2048h819v-2048h-819z" />
    <glyph glyph-name="m" unicode="m" 
d="M2048 2048l1229 1229h819v-3277h-819v2048l-1229 -1229l-819 819v1229zM819 3277v-3277h-819v3277h819z" />
    <glyph glyph-name="n" unicode="n" 
d="M3277 1229v2048h819v-3277h-819l-2048 2048v1229zM819 3277v-3277h-819v3277h819z" />
    <glyph glyph-name="o" unicode="o" 
d="M3277 819v2458h819v-3277h-4096v819h3277zM0 3277h2867v-819h-2048v-1229h-819v2048z" />
    <glyph glyph-name="p" unicode="p" 
d="M0 2458v819h4096v-2048h-2867v819h2048v410h-3277zM0 0v2048h819v-2048h-819z" />
    <glyph glyph-name="q" unicode="q" 
d="M4096 3277v-1639l-819 820h-2458v-1639h1229l819 -819h-2867v3277h4096zM2458 1229v409h819l819 -819v-819h-410z" />
    <glyph glyph-name="r" unicode="r" 
d="M0 2458v819h4096v-2048h-1229l1229 -1229h-1229l-1638 1638v410h2048v410h-3277zM819 2048v-2048h-819v2048h819z" />
    <glyph glyph-name="s" unicode="s" 
d="M0 0v819h3277v410h-3277v2048h819v-1229h3277v-2048h-4096zM1229 2458v819h2867v-819h-2867z" />
    <glyph glyph-name="t" unicode="t" 
d="M4096 3277v-819h-1638v-2458h-820v3277h2458zM0 2458v819h1229v-819h-1229z" />
    <glyph glyph-name="u" unicode="u" 
d="M3277 819v2458h819v-3277h-2867v819h2048zM819 3277v-3277h-819v3277h819z" />
    <glyph glyph-name="v" unicode="v" 
d="M1229 1229l2048 2048h819v-410l-2867 -2867v1229zM0 0v3277h819v-3277h-819z" />
    <glyph glyph-name="w" unicode="w" 
d="M1229 410v1228l819 820l1229 -1229v2048h819v-3277h-819l-1229 1229zM0 0v3277h819v-3277h-819z" />
    <glyph glyph-name="x" unicode="x" 
d="M0 0v410l2867 2867h1229l-1229 -1229l1229 -1229v-819h-410l-1433 1434l-1434 -1434h-819zM819 3277l612 -617l-612 -612l-819 819v410h819z" />
    <glyph glyph-name="y" unicode="y" 
d="M0 3277h1229l819 -819l819 819h1229l-1638 -1639h-820zM2458 1229v-1229h-820v1229h820z" />
    <glyph glyph-name="z" unicode="z" 
d="M0 2048h3277v1229h819v-2048h-3277v-410h3277v-819h-4096v2048zM0 3277h2867v-819h-2867v819z" />
    <glyph glyph-name="uni0401" unicode="&#x401;" 
d="M4096 3277v-819h-3277v-1639h3277v-819h-4096v3277h4096zM1229 2048h2457v-819h-2457v819zM2458 4506h819v-820h-819v820zM819 3686v820h819v-820h-819z" />
    <glyph glyph-name="uni0404" unicode="&#x404;" 
d="M0 3277h4096v-819h-3277v-1639h3277v-819h-4096v3277zM3686 2048v-819h-2457v819h2457z" />
    <glyph glyph-name="uni0406" unicode="&#x406;" 
d="M0 2458v819h4096v-819h-1638v-1229h-820v1229h-1638zM4096 819v-819h-4096v819h4096z" />
    <glyph glyph-name="uni0407" unicode="&#x407;" 
d="M0 2458v819h4096v-819h-1638v-1229h-820v1229h-1638zM0 0v819h4096v-819h-4096zM3277 4506v-820h-819v820h819zM1638 4506v-820h-819v820h819z" />
    <glyph glyph-name="uni0410" unicode="&#x410;" 
d="M3277 3277h819v-819h-410l-2457 -2458h-1229zM2458 410l1638 1638v-2048h-819v410h-819z" />
    <glyph glyph-name="uni0411" unicode="&#x411;" 
d="M0 3277h819v-1229h3277v-2048h-2867v819h2048v410h-2458v-1229h-819v3277zM4096 3277v-819h-2867v819h2867z" />
    <glyph glyph-name="uni0412" unicode="&#x412;" 
d="M0 2458v819h3686l410 -410v-2457l-410 -410h-2457v819h2048v410h-2048v819h2048v410h-3277zM819 2048v-2048h-819v2048h819z" />
    <glyph glyph-name="uni0413" unicode="&#x413;" 
d="M0 3277h819v-3277h-819v3277zM1229 2458v819h2867v-819h-2867z" />
    <glyph glyph-name="uni0414" unicode="&#x414;" 
d="M0 -819v1638h410l2457 2458h819v-410l-2048 -2048h1229v410l819 819v-1229h410v-1638h-819v819h-2458v-819h-819z" />
    <glyph glyph-name="uni0415" unicode="&#x415;" 
d="M0 3277h4096v-819h-3277v-1639h3277v-819h-4096v3277zM3686 2048v-819h-2457v819h2457z" />
    <glyph glyph-name="uni0416" unicode="&#x416;" 
d="M2458 3277v-3277h-820v3277h820zM3686 3277h410v-819l-819 -820l819 -819v-819h-410l-819 819v1639zM0 0v819l819 819l-819 820v819h410l819 -819v-1639l-819 -819h-410z" />
    <glyph glyph-name="uni0417" unicode="&#x417;" 
d="M1229 1229v819h2048v1229h819v-3277h-819v1229h-2048zM0 0v1229h819v-410h2048v-819h-2867zM2867 3277v-819h-2048v-410h-819v1229h2867z" />
    <glyph glyph-name="uni0418" unicode="&#x418;" 
d="M3277 3277h819v-3277h-819v2048l-2048 -2048v1229zM0 0v3277h819v-3277h-819z" />
    <glyph glyph-name="uni0419" unicode="&#x419;" 
d="M1229 0v1229l2048 2048h819v-3277h-819v2048zM0 3277h819v-3277h-819v3277zM819 3686v820h2458v-820h-2458z" />
    <glyph glyph-name="uni041A" unicode="&#x41a;" 
d="M2867 3277h1229l-1638 -1639l1638 -1638h-1229l-1638 1638zM0 3277h819v-3277h-819v3277z" />
    <glyph glyph-name="uni041B" unicode="&#x41b;" 
d="M0 0l3277 3277h819v-410l-2867 -2867h-1229zM3277 1229l819 819v-2048h-819v1229z" />
    <glyph glyph-name="uni041C" unicode="&#x41c;" 
d="M2048 2048l1229 1229h819v-3277h-819v2048l-1229 -1229l-819 819v1229zM819 3277v-3277h-819v3277h819z" />
    <glyph glyph-name="uni041D" unicode="&#x41d;" 
d="M1229 1229v819h2048v1229h819v-3277h-819v1229h-2048zM0 0v3277h819v-3277h-819z" />
    <glyph glyph-name="uni041E" unicode="&#x41e;" 
d="M3277 819v2458h819v-3277h-4096v819h3277zM0 3277h2867v-819h-2048v-1229h-819v2048z" />
    <glyph glyph-name="uni041F" unicode="&#x41f;" 
d="M1229 3277h2867v-3277h-819v2458h-2048v819zM0 0v3277h819v-3277h-819z" />
    <glyph glyph-name="uni0420" unicode="&#x420;" 
d="M0 2458v819h4096v-2048h-2867v819h2048v410h-3277zM0 0v2048h819v-2048h-819z" />
    <glyph glyph-name="uni0421" unicode="&#x421;" 
d="M0 3277h4096v-819h-4096v819zM1229 819h2867v-819h-2867v819zM0 2048h819v-2048h-819v2048z" />
    <glyph glyph-name="uni0422" unicode="&#x422;" 
d="M4096 3277v-819h-1638v-2458h-820v3277h2458zM0 2458v819h1229v-819h-1229z" />
    <glyph glyph-name="uni0423" unicode="&#x423;" 
d="M1229 1229l-1229 1229v819h410l1228 -1229v-2l205 -203l1434 1434h819v-410l-2867 -2867h-1229z" />
    <glyph glyph-name="uni0424" unicode="&#x424;" 
d="M819 3277v-1229h2048v-819h-409v-1229h-820v1229h-1638v2048h819zM1229 2458v819h2867v-2048h-819v1229h-2048z" />
    <glyph glyph-name="uni0425" unicode="&#x425;" 
d="M0 0v410l2867 2867h1229l-1229 -1229l1229 -1229v-819h-410l-1433 1434l-1434 -1434h-819zM819 3277l612 -617l-612 -612l-819 819v410h819z" />
    <glyph glyph-name="uni0426" unicode="&#x426;" 
d="M1229 819h1638v2458h819v-2458h410v-1638h-819v819h-2048v819zM819 3277v-3277h-819v3277h819z" />
    <glyph glyph-name="uni0427" unicode="&#x427;" 
d="M819 3277v-1229h2048v-819h-2867v2048h819zM3277 3277h819v-3277h-819v3277z" />
    <glyph glyph-name="uni0428" unicode="&#x428;" 
d="M0 3277h819v-2458h2458v2458h819v-3277h-4096v3277zM1638 3277h820v-2048h-820v2048z" />
    <glyph glyph-name="uni0429" unicode="&#x429;" 
d="M819 3277v-2458h2048v2458h819v-2458h410v-1638h-819v819h-3277v3277h819zM1434 1229v2048h819v-2048h-819z" />
    <glyph glyph-name="uni042A" unicode="&#x42a;" 
d="M1638 3277v-2458h1229v-819h-2048v2458h-819v819h1638zM2048 2048h2048v-2048h-819v1229h-1229v819z" />
    <glyph glyph-name="uni042B" unicode="&#x42b;" 
d="M819 3277v-2458h819v-819h-1638v3277h819zM4096 3277v-3277h-819v3277h819zM1229 2048h1638v-2048h-819v1229h-819v819z" />
    <glyph glyph-name="uni042C" unicode="&#x42c;" 
d="M819 3277v-2458h2048v-819h-2867v3277h819zM4096 2048v-2048h-819v1229h-2048v819h2867z" />
    <glyph glyph-name="uni042D" unicode="&#x42d;" 
d="M4096 3277v-3277h-4096v819h3277v1639h-3277v819h4096zM410 1229v819h2457v-819h-2457z" />
    <glyph glyph-name="uni042E" unicode="&#x42e;" 
d="M1638 3277h2458v-3277h-819v2458h-1639v819zM0 0v3277h819v-1229h410v-819h-410v-1229h-819zM2458 2048v-1229h409v-819h-1229v2048h820z" />
    <glyph glyph-name="uni042F" unicode="&#x42f;" 
d="M0 0l1229 1229h-1229v2048h4096v-819h-3277v-410h2048v-410l-1638 -1638h-1229zM3277 2048h819v-2048h-819v2048z" />
    <glyph glyph-name="uni0430" unicode="&#x430;" 
d="M3277 3277h819v-819h-410l-2457 -2458h-1229zM2458 410l1638 1638v-2048h-819v410h-819z" />
    <glyph glyph-name="uni0431" unicode="&#x431;" 
d="M0 3277h819v-1229h3277v-2048h-2867v819h2048v410h-2458v-1229h-819v3277zM4096 3277v-819h-2867v819h2867z" />
    <glyph glyph-name="uni0432" unicode="&#x432;" 
d="M0 2458v819h3686l410 -410v-2457l-410 -410h-2457v819h2048v410h-2048v819h2048v410h-3277zM819 2048v-2048h-819v2048h819z" />
    <glyph glyph-name="uni0433" unicode="&#x433;" 
d="M0 3277h819v-3277h-819v3277zM1229 2458v819h2867v-819h-2867z" />
    <glyph glyph-name="uni0434" unicode="&#x434;" 
d="M0 -819v1638h410l2457 2458h819v-410l-2048 -2048h1229v410l819 819v-1229h410v-1638h-819v819h-2458v-819h-819z" />
    <glyph glyph-name="uni0435" unicode="&#x435;" 
d="M0 3277h4096v-819h-3277v-1639h3277v-819h-4096v3277zM3686 2048v-819h-2457v819h2457z" />
    <glyph glyph-name="uni0436" unicode="&#x436;" 
d="M2458 3277v-3277h-820v3277h820zM3686 3277h410v-819l-819 -820l819 -819v-819h-410l-819 819v1639zM0 0v819l819 819l-819 820v819h410l819 -819v-1639l-819 -819h-410z" />
    <glyph glyph-name="uni0437" unicode="&#x437;" 
d="M1229 1229v819h2048v1229h819v-3277h-819v1229h-2048zM0 0v1229h819v-410h2048v-819h-2867zM2867 3277v-819h-2048v-410h-819v1229h2867z" />
    <glyph glyph-name="uni0438" unicode="&#x438;" 
d="M3277 3277h819v-3277h-819v2048l-2048 -2048v1229zM0 0v3277h819v-3277h-819z" />
    <glyph glyph-name="uni0439" unicode="&#x439;" 
d="M1229 0v1229l2048 2048h819v-3277h-819v2048zM0 3277h819v-3277h-819v3277zM819 3686v820h2458v-820h-2458z" />
    <glyph glyph-name="uni043A" unicode="&#x43a;" 
d="M2867 3277h1229l-1638 -1639l1638 -1638h-1229l-1638 1638zM0 3277h819v-3277h-819v3277z" />
    <glyph glyph-name="uni043B" unicode="&#x43b;" 
d="M0 0l3277 3277h819v-410l-2867 -2867h-1229zM3277 1229l819 819v-2048h-819v1229z" />
    <glyph glyph-name="uni043C" unicode="&#x43c;" 
d="M2048 2048l1229 1229h819v-3277h-819v2048l-1229 -1229l-819 819v1229zM819 3277v-3277h-819v3277h819z" />
    <glyph glyph-name="uni043D" unicode="&#x43d;" 
d="M1229 1229v819h2048v1229h819v-3277h-819v1229h-2048zM0 0v3277h819v-3277h-819z" />
    <glyph glyph-name="uni043E" unicode="&#x43e;" 
d="M3277 819v2458h819v-3277h-4096v819h3277zM0 3277h2867v-819h-2048v-1229h-819v2048z" />
    <glyph glyph-name="uni043F" unicode="&#x43f;" 
d="M1229 3277h2867v-3277h-819v2458h-2048v819zM0 0v3277h819v-3277h-819z" />
    <glyph glyph-name="uni0440" unicode="&#x440;" 
d="M0 2458v819h4096v-2048h-2867v819h2048v410h-3277zM0 0v2048h819v-2048h-819z" />
    <glyph glyph-name="uni0441" unicode="&#x441;" 
d="M0 3277h4096v-819h-4096v819zM1229 819h2867v-819h-2867v819zM0 2048h819v-2048h-819v2048z" />
    <glyph glyph-name="uni0442" unicode="&#x442;" 
d="M4096 3277v-819h-1638v-2458h-820v3277h2458zM0 2458v819h1229v-819h-1229z" />
    <glyph glyph-name="uni0443" unicode="&#x443;" 
d="M1229 1229l-1229 1229v819h410l1228 -1229v-2l205 -203l1434 1434h819v-410l-2867 -2867h-1229z" />
    <glyph glyph-name="uni0444" unicode="&#x444;" 
d="M819 3277v-1229h2048v-819h-409v-1229h-820v1229h-1638v2048h819zM1229 2458v819h2867v-2048h-819v1229h-2048z" />
    <glyph glyph-name="uni0445" unicode="&#x445;" 
d="M0 0v410l2867 2867h1229l-1229 -1229l1229 -1229v-819h-410l-1433 1434l-1434 -1434h-819zM819 3277l612 -617l-612 -612l-819 819v410h819z" />
    <glyph glyph-name="uni0446" unicode="&#x446;" 
d="M1229 819h1638v2458h819v-2458h410v-1638h-819v819h-2048v819zM819 3277v-3277h-819v3277h819z" />
    <glyph glyph-name="uni0447" unicode="&#x447;" 
d="M819 3277v-1229h2048v-819h-2867v2048h819zM3277 3277h819v-3277h-819v3277z" />
    <glyph glyph-name="uni0448" unicode="&#x448;" 
d="M0 3277h819v-2458h2458v2458h819v-3277h-4096v3277zM1638 3277h820v-2048h-820v2048z" />
    <glyph glyph-name="uni0449" unicode="&#x449;" 
d="M819 3277v-2458h2048v2458h819v-2458h410v-1638h-819v819h-3277v3277h819zM1434 1229v2048h819v-2048h-819z" />
    <glyph glyph-name="uni044A" unicode="&#x44a;" 
d="M1638 3277v-2458h1229v-819h-2048v2458h-819v819h1638zM2048 2048h2048v-2048h-819v1229h-1229v819z" />
    <glyph glyph-name="uni044B" unicode="&#x44b;" 
d="M819 3277v-2458h819v-819h-1638v3277h819zM4096 3277v-3277h-819v3277h819zM1229 2048h1638v-2048h-819v1229h-819v819z" />
    <glyph glyph-name="uni044C" unicode="&#x44c;" 
d="M819 3277v-2458h2048v-819h-2867v3277h819zM4096 2048v-2048h-819v1229h-2048v819h2867z" />
    <glyph glyph-name="uni044D" unicode="&#x44d;" 
d="M4096 3277v-3277h-4096v819h3277v1639h-3277v819h4096zM410 1229v819h2457v-819h-2457z" />
    <glyph glyph-name="uni044E" unicode="&#x44e;" 
d="M1638 3277h2458v-3277h-819v2458h-1639v819zM0 0v3277h819v-1229h410v-819h-410v-1229h-819zM2458 2048v-1229h409v-819h-1229v2048h820z" />
    <glyph glyph-name="uni044F" unicode="&#x44f;" 
d="M0 0l1229 1229h-1229v2048h4096v-819h-3277v-410h2048v-410l-1638 -1638h-1229zM3277 2048h819v-2048h-819v2048z" />
    <glyph glyph-name="uni0451" unicode="&#x451;" 
d="M4096 3277v-819h-3277v-1639h3277v-819h-4096v3277h4096zM1229 2048h2457v-819h-2457v819zM2458 4506h819v-820h-819v820zM819 3686v820h819v-820h-819z" />
    <glyph glyph-name="uni0454" unicode="&#x454;" 
d="M0 3277h4096v-819h-3277v-1639h3277v-819h-4096v3277zM3686 2048v-819h-2457v819h2457z" />
    <glyph glyph-name="uni0456" unicode="&#x456;" 
d="M0 2458v819h4096v-819h-1638v-1229h-820v1229h-1638zM4096 819v-819h-4096v819h4096z" />
    <glyph glyph-name="uni0457" unicode="&#x457;" 
d="M0 2458v819h4096v-819h-1638v-1229h-820v1229h-1638zM0 0v819h4096v-819h-4096zM3277 4506v-820h-819v820h819zM1638 4506v-820h-819v820h819z" />
    <glyph glyph-name="uni0490" unicode="&#x490;" 
d="M1229 2458v819h2048v819h819v-1638h-2867zM819 3277v-3277h-819v3277h819z" />
    <glyph glyph-name="uni0491" unicode="&#x491;" 
d="M1229 2458v819h2048v819h819v-1638h-2867zM819 3277v-3277h-819v3277h819z" />
    <glyph glyph-name="quoteleft" unicode="&#x2018;" horiz-adv-x="1229" 
d="M0 1638v1639l819 -819v-820h-819z" />
    <glyph glyph-name="quoteright" unicode="&#x2019;" horiz-adv-x="1229" 
d="M819 1638l-819 820v819h819v-1639z" />
    <glyph glyph-name="quotedblleft" unicode="&#x201c;" horiz-adv-x="2458" 
d="M1229 3277l819 -819v-820h-819v1639zM0 3277l819 -819v-820h-819v1639z" />
    <glyph glyph-name="quotedblright" unicode="&#x201d;" horiz-adv-x="2458" 
d="M1229 2458v819h819v-1639zM819 3277v-1639l-819 820v819h819z" />
    <glyph glyph-name="nonmarkingreturn" horiz-adv-x="1024" 
 />
    <glyph glyph-name="_4" horiz-adv-x="410" 
 />
    <glyph glyph-name="_5" horiz-adv-x="410" 
 />
    </font>
</defs>
</svg>
